<?xml version="1.0" standalone="no"?>
<!DOCTYPE svg PUBLIC "-//W3C//DTD SVG 20010904//EN"
 "http://www.w3.org/TR/2001/REC-SVG-20010904/DTD/svg10.dtd">
<svg version="1.0" xmlns="http://www.w3.org/2000/svg"
 width="303.000000pt" height="303.000000pt" viewBox="0 0 303.000000 303.000000"
 preserveAspectRatio="xMidYMid meet">
<metadata>
Created by potrace 1.14, written by Peter Selinger 2001-2017
</metadata>
<g transform="translate(0.000000,303.000000) scale(0.100000,-0.100000)"
fill="#000000" stroke="none">
<path d="M502 3015 c-136 -30 -280 -122 -365 -233 -59 -77 -92 -143 -116 -238
-20 -77 -21 -99 -18 -1054 l2 -975 23 -65 c65 -181 177 -308 342 -388 126 -62
100 -61 1170 -59 l975 2 65 23 c112 41 182 84 255 157 80 80 125 151 163 257
l27 73 0 1000 0 1000 -27 73 c-76 206 -215 343 -419 414 l-64 23 -975 2 c-794
1 -987 -1 -1038 -12z"/>
</g>
</svg>
